# xmcd CD database file
#
# Track frame offsets:
#	150
#	57027
#	95045
#	183425
#
# Disc length: 3477 seconds
#
# Revision: 0
# Processed by: cddbd v1.4PL0 Copyright (c) Steve Scherf et al.
# Submitted via: CDex 1.50Beta7
#
DISCID=2e0d9304
DTITLE=Trevor Watts Moire Music - With One Voice
DYEAR=2002
DGENRE=Jazz
TTITLE0=Themes for America No.1
TTITLE1=Need We Ever Say Goodbye
TTITLE2=Themes for America No.2
TTITLE3=Bonus track - Themes for America No.4
EXTD=YEAR: 2002
EXTT0=
EXTT1=
EXTT2=
EXTT3=
PLAYORDER=
